<?xml version="1.0" encoding="UTF-8" standalone="no"?>
<!DOCTYPE svg PUBLIC "-//W3C//DTD SVG 1.1//EN"
 "http://www.w3.org/Graphics/SVG/1.1/DTD/svg11.dtd">
<!-- Generated by graphviz version 2.40.1 (20161225.0304)
 -->
<!-- Title: state transitions Pages: 1 -->
<svg width="280pt" height="200pt"
 viewBox="0.00 0.00 280.00 200.00" xmlns="http://www.w3.org/2000/svg" xmlns:xlink="http://www.w3.org/1999/xlink">
<g id="graph0" class="graph" transform="scale(1 1) rotate(0) translate(4 196)">
<title>state transitions</title>
<polygon fill="#ffffff" stroke="transparent" points="-4,4 -4,-196 276,-196 276,4 -4,4"/>
<g id="clust1" class="cluster state regular">
<title>cluster_STATE</title>
<path fill="none" stroke="#000000" stroke-width="2" d="M20,-8C20,-8 252,-8 252,-8 258,-8 264,-14 264,-20 264,-20 264,-172 264,-172 264,-178 258,-184 252,-184 252,-184 20,-184 20,-184 14,-184 8,-178 8,-172 8,-172 8,-20 8,-20 8,-14 14,-8 20,-8"/>
<text text-anchor="start" x="116.665" y="-165.2" font-family="Helvetica,sans-Serif" font-size="12.00" fill="#000000">STATE</text>
</g>
<!-- STATE -->
<!-- ST_IDLE -->
<g id="node2" class="node state regular">
<title>ST_IDLE</title>
<polygon fill="#ffffff" fill-opacity="0.003922" stroke="transparent" stroke-width="2" points="123,-146 53,-146 53,-110 123,-110 123,-146"/>
<text text-anchor="start" x="63.6622" y="-124.2" font-family="Helvetica,sans-Serif" font-size="12.00" fill="#000000">ST_IDLE</text>
<path fill="none" stroke="#000000" stroke-width="2" d="M65.3333,-111C65.3333,-111 110.6667,-111 110.6667,-111 116.3333,-111 122,-116.6667 122,-122.3333 122,-122.3333 122,-133.6667 122,-133.6667 122,-139.3333 116.3333,-145 110.6667,-145 110.6667,-145 65.3333,-145 65.3333,-145 59.6667,-145 54,-139.3333 54,-133.6667 54,-133.6667 54,-122.3333 54,-122.3333 54,-116.6667 59.6667,-111 65.3333,-111"/>
</g>
<!-- ST_AVG -->
<g id="node3" class="node state regular">
<title>ST_AVG</title>
<polygon fill="#ffffff" fill-opacity="0.003922" stroke="transparent" stroke-width="2" points="165.5,-52 96.5,-52 96.5,-16 165.5,-16 165.5,-52"/>
<text text-anchor="start" x="107.8276" y="-30.2" font-family="Helvetica,sans-Serif" font-size="12.00" fill="#000000">ST_AVG</text>
<path fill="none" stroke="#000000" stroke-width="2" d="M108.8333,-17C108.8333,-17 153.1667,-17 153.1667,-17 158.8333,-17 164.5,-22.6667 164.5,-28.3333 164.5,-28.3333 164.5,-39.6667 164.5,-39.6667 164.5,-45.3333 158.8333,-51 153.1667,-51 153.1667,-51 108.8333,-51 108.8333,-51 103.1667,-51 97.5,-45.3333 97.5,-39.6667 97.5,-39.6667 97.5,-28.3333 97.5,-28.3333 97.5,-22.6667 103.1667,-17 108.8333,-17"/>
</g>
<!-- ST_IDLE&#45;&gt;ST_AVG -->
<g id="edge1" class="edge transition">
<title>ST_IDLE&#45;&gt;ST_AVG</title>
<path fill="none" stroke="#000000" d="M67.2283,-109.85C56.2594,-98.0063 46.6709,-82.3278 55.197,-69 62.4799,-57.6156 74.5124,-49.8811 86.869,-44.6481"/>
<polygon fill="#000000" stroke="#000000" points="88.1696,-47.8984 96.308,-41.1148 85.7156,-41.3427 88.1696,-47.8984"/>
<text text-anchor="start" x="55" y="-78" font-family="Helvetica,sans-Serif" font-size="10.00" fill="#000000">i_valid &amp;&amp; sof &amp;&amp; !overflow &#160;&#160;</text>
</g>
<!-- ST_AVG&#45;&gt;ST_IDLE -->
<g id="edge2" class="edge transition">
<title>ST_AVG&#45;&gt;ST_IDLE</title>
<path fill="none" stroke="#000000" d="M165.5074,-49.6787C172.9086,-54.7423 179.7684,-61.1344 184,-69 189.0537,-78.3935 190.1158,-84.2607 184,-93 177.6714,-102.0434 154.8114,-110.565 132.9872,-116.9353"/>
<polygon fill="#000000" stroke="#000000" points="131.7817,-113.6381 123.0958,-119.7049 133.6692,-120.3789 131.7817,-113.6381"/>
<text text-anchor="start" x="188" y="-84" font-family="Helvetica,sans-Serif" font-size="10.00" fill="#000000">overflow &#160;&#160;</text>
<text text-anchor="start" x="188" y="-72" font-family="Helvetica,sans-Serif" font-size="10.00" fill="#000000">i_valid &#160;&#160;</text>
</g>
</g>
</svg>
